HIERARCHY
ROOT Hips
{
	OFFSET -3.958830 18.904000 13.208200
	CHANNELS 6 Xposition Yposition Zposition Zrotation Yrotation Xrotation 
	JOINT LHipJoint
	{
		OFFSET 0.000000 0.000000 0.000000
		CHANNELS 3 Zrotation Yrotation Xrotation
		JOINT LeftUpLeg
		{
			OFFSET 1.800000 -1.400000 0.085000
			CHANNELS 3 Zrotation Yrotation Xrotation
			JOINT LeftLeg
			{
				OFFSET 2.215000 -6.000000 0.000000
				CHANNELS 3 Zrotation Yrotation Xrotation
				JOINT LeftFoot
				{
					OFFSET 2.500000 -6.900000 0.000000
					CHANNELS 3 Zrotation Yrotation Xrotation
					JOINT LeftToeBase
					{
						OFFSET 0.200000 -0.500000 1.950000
						CHANNELS 3 Zrotation Yrotation Xrotation
						End Site
						{
							OFFSET 0.000000 0.000000 0.000000
						}
					}
				}
			}
		}
	}
	JOINT RHipJoint
	{
		OFFSET 0.000000 0.000000 0.000000
		CHANNELS 3 Zrotation Yrotation Xrotation
		JOINT RightUpLeg
		{
			OFFSET -1.800000 -1.400000 0.085000
			CHANNELS 3 Zrotation Yrotation Xrotation
			JOINT RightLeg
			{
				OFFSET -2.215000 -6.000000 0.000000
				CHANNELS 3 Zrotation Yrotation Xrotation
				JOINT RightFoot
				{
					OFFSET -2.500000 -6.900000 0.000000
					CHANNELS 3 Zrotation Yrotation Xrotation
					JOINT RightToeBase
					{
						OFFSET -0.200000 -0.500000 1.950000
						CHANNELS 3 Zrotation Yrotation Xrotation
						End Site
						{
							OFFSET 0.000000 0.000000 0.000000
						}
					}
				}
			}
		}
	}
	JOINT LowerBack
	{
		OFFSET 0.000000 0.000000 0.000000
		CHANNELS 3 Zrotation Yrotation Xrotation
		JOINT Spine
		{
			OFFSET -0.087000 1.940000 -0.288900
			CHANNELS 3 Zrotation Yrotation Xrotation
			JOINT Spine1
			{
				OFFSET 0.000000 1.950000 0.060000
				CHANNELS 3 Zrotation Yrotation Xrotation
				JOINT Neck
				{
					OFFSET 0.000000 0.000000 0.000000
					CHANNELS 3 Zrotation Yrotation Xrotation
					JOINT Neck1
					{
						OFFSET 0.000000 1.600000 0.340000
						CHANNELS 3 Zrotation Yrotation Xrotation
						JOINT Head
						{
							OFFSET 0.000000 1.667000 -0.240000
							CHANNELS 3 Zrotation Yrotation Xrotation
							End Site
							{
								OFFSET 0.000000 0.000000 0.000000
							}
						}
					}
				}
				JOINT LeftShoulder
				{
					OFFSET 0.000000 0.000000 0.000000
					CHANNELS 3 Zrotation Yrotation Xrotation
					JOINT LeftArm
					{
						OFFSET 2.700000 1.550000 -0.730000
						CHANNELS 3 Zrotation Yrotation Xrotation
						JOINT LeftForeArm
						{
							OFFSET 5.450000 0.000000 0.000000
							CHANNELS 3 Zrotation Yrotation Xrotation
							JOINT LeftHand
							{
								OFFSET 3.450000 0.000000 0.000000
								CHANNELS 3 Zrotation Yrotation Xrotation
								JOINT LeftHandIndex1
								{
									OFFSET 0.750000 0.000000 0.000000
									CHANNELS 3 Zrotation Yrotation Xrotation
									End Site
									{
										OFFSET 0.000000 0.000000 0.000000
									}
								}
							}
						}
					}
				}
				JOINT RightShoulder
				{
					OFFSET 0.000000 0.000000 0.000000
					CHANNELS 3 Zrotation Yrotation Xrotation
					JOINT RightArm
					{
						OFFSET -2.700000 1.550000 -0.730000
						CHANNELS 3 Zrotation Yrotation Xrotation
						JOINT RightForeArm
						{
							OFFSET -5.450000 0.000000 0.000000
							CHANNELS 3 Zrotation Yrotation Xrotation
							JOINT RightHand
							{
								OFFSET -3.450000 0.000000 0.000000
								CHANNELS 3 Zrotation Yrotation Xrotation
								JOINT RightHandIndex1
								{
									OFFSET -0.750000 0.000000 0.000000
									CHANNELS 3 Zrotation Yrotation Xrotation
									End Site
									{
										OFFSET 0.000000 0.000000 0.000000
									}
								}
							}
						}
					}
				}
			}
		}
	}
}
MOTION
Frames: 4
Frame Time: 0.016667
-0.877050 17.051080 -0.970040 -17.528729 4.431507 -6.224094 -15.012535 12.117869 1.530251 13.583027 -1.568344 -26.453500 15.876285 1.514408 22.658179 -0.868329 3.895735 3.110716 1.202130 0.449830 1.215580 18.730722 -8.182957 6.496735 -11.581070 14.700344 -53.470829 63.743199 -59.529114 59.541341 -3.985251 -15.674577 -0.022998 0.246070 -0.194910 0.223050 -4.417105 -1.906684 -9.099805 2.127230 -3.811612 38.754758 -12.635537 -0.356648 4.893439 1.127552 -7.004059 -16.885759 -30.309886 21.505002 66.275191 2.066040 4.530880 -8.380690 -14.976923 -26.584938 6.093333 -29.177209 -13.692742 -8.597615 -66.323473 -40.575245 17.774016 -3.094821 3.300459 1.087340 -0.227220 0.217520 0.214740 13.571366 31.137835 9.709049 56.303704 19.215912 -10.805951 50.867011 34.342026 6.884998 2.120375 -1.742110 -0.136470 0.159440 -0.412370 -0.536900 
-0.866210 17.047190 -0.974520 -17.689498 4.381316 -6.134408 -14.989208 12.028628 1.524462 13.939539 -1.559315 -26.739783 15.509059 1.647243 23.014973 -0.877919 3.942680 3.083897 1.195710 0.443130 1.213040 18.768654 -8.167747 6.550174 -12.078784 14.654517 -54.798218 64.898864 -61.015908 59.619470 -4.011233 -15.716582 -0.030010 0.244860 -0.190170 0.228140 -4.501028 -1.758018 -9.121802 2.857328 -4.153459 38.925220 -13.435721 -0.379339 4.898825 1.320881 -6.914766 -16.885684 -30.152427 21.521014 66.814539 2.123200 4.344290 -8.457940 -14.796431 -26.678515 6.083728 -29.404277 -13.609066 -8.779111 -66.376877 -40.243861 17.440989 -3.103410 3.289463 1.091310 -0.224940 0.218550 0.206060 12.951351 31.096499 9.654541 57.028871 19.355228 -11.002428 50.757473 34.326919 6.716338 2.120628 -1.736045 -0.138740 0.164350 -0.399970 -0.536520 
-0.841610 17.037210 -0.984960 -18.395732 4.003114 -5.834331 -14.935555 11.852607 1.515451 15.029518 -1.442296 -27.271436 14.746474 1.969751 23.633386 -0.890967 4.051402 3.039249 1.179080 0.427010 1.201770 18.853283 -8.148335 6.632518 -12.718409 14.857792 -57.326635 66.737630 -63.120650 59.482678 -4.041872 -15.769994 -0.016722 0.245220 -0.171500 0.209340 -4.692619 -1.437489 -9.156255 4.940739 -5.075304 38.875240 -15.131307 -0.439251 4.906900 1.748124 -6.775674 -16.886741 -29.975108 21.811118 67.631522 2.185790 4.252590 -7.949730 -14.872515 -26.767847 6.117872 -29.512150 -13.290523 -8.978543 -66.316251 -40.398810 17.437037 -3.116811 3.260135 1.091190 -0.214600 0.200550 0.201030 12.049524 30.891094 9.488010 57.973511 19.721750 -10.945969 50.560674 34.111056 6.489429 2.115001 -1.724575 -0.160400 0.189160 -0.385440 -0.540610 
-0.814750 17.027500 -0.996760 -18.991303 3.610129 -5.522617 -14.889118 11.707512 1.498434 15.898568 -1.339940 -27.462631 13.986161 2.230947 23.592180 -0.915913 4.085215 3.021746 1.160920 0.402880 1.187230 18.929220 -8.135303 6.707867 -13.526387 14.836963 -59.698263 69.275819 -64.573623 58.219158 -4.023965 -15.654409 0.020793 0.243140 -0.157860 0.198980 -4.862017 -1.164500 -9.173399 6.764644 -6.056172 38.861976 -16.701091 -0.649580 5.004733 2.185430 -6.709797 -16.946675 -29.968384 22.188282 68.203199 2.160270 4.117610 -7.405720 -15.011479 -26.876354 6.272486 -29.486115 -12.625702 -9.292911 -66.746110 -41.037083 17.884835 -3.123539 3.250773 1.093960 -0.206180 0.182270 0.193500 11.226560 30.772810 9.329417 58.423344 20.202562 -10.793644 50.832007 34.139808 6.516766 2.109518 -1.721830 -0.180210 0.200450 -0.367020 -0.546980 
